<mxfile host="app.diagrams.net" modified="2023-10-23T22:48:07.284Z" agent="Mozilla/5.0 (Windows NT 10.0; Win64; x64) AppleWebKit/537.36 (KHTML, like Gecko) Chrome/118.0.0.0 Safari/537.36" etag="d2BvcE423qmUhQH6Oujy" version="22.0.6" type="device">
  <diagram name="Page-1" id="uUrLbPjT-4kFAoDPYk5e">
    <mxGraphModel dx="689" dy="614" grid="1" gridSize="10" guides="1" tooltips="1" connect="1" arrows="1" fold="1" page="1" pageScale="1" pageWidth="850" pageHeight="1100" math="0" shadow="0">
      <root>
        <mxCell id="0" />
        <mxCell id="1" parent="0" />
        <mxCell id="AvxzYxUVcvAYq60GdygG-3" value="" style="edgeStyle=orthogonalEdgeStyle;rounded=0;orthogonalLoop=1;jettySize=auto;html=1;" parent="1" source="AvxzYxUVcvAYq60GdygG-1" target="AvxzYxUVcvAYq60GdygG-2" edge="1">
          <mxGeometry relative="1" as="geometry" />
        </mxCell>
        <mxCell id="AvxzYxUVcvAYq60GdygG-1" value="Start" style="ellipse;whiteSpace=wrap;html=1;" parent="1" vertex="1">
          <mxGeometry x="365" y="130" width="120" height="80" as="geometry" />
        </mxCell>
        <mxCell id="AvxzYxUVcvAYq60GdygG-5" value="" style="edgeStyle=orthogonalEdgeStyle;rounded=0;orthogonalLoop=1;jettySize=auto;html=1;" parent="1" source="AvxzYxUVcvAYq60GdygG-2" target="AvxzYxUVcvAYq60GdygG-4" edge="1">
          <mxGeometry relative="1" as="geometry" />
        </mxCell>
        <mxCell id="AvxzYxUVcvAYq60GdygG-2" value="Patient Registration" style="whiteSpace=wrap;html=1;" parent="1" vertex="1">
          <mxGeometry x="365" y="300" width="120" height="60" as="geometry" />
        </mxCell>
        <mxCell id="YIYibgw2GehKVTbHbiD7-7" value="" style="edgeStyle=orthogonalEdgeStyle;rounded=0;orthogonalLoop=1;jettySize=auto;html=1;" edge="1" parent="1" source="AvxzYxUVcvAYq60GdygG-4" target="YIYibgw2GehKVTbHbiD7-6">
          <mxGeometry relative="1" as="geometry" />
        </mxCell>
        <mxCell id="YIYibgw2GehKVTbHbiD7-9" value="" style="edgeStyle=orthogonalEdgeStyle;rounded=0;orthogonalLoop=1;jettySize=auto;html=1;" edge="1" parent="1" source="AvxzYxUVcvAYq60GdygG-4" target="YIYibgw2GehKVTbHbiD7-8">
          <mxGeometry relative="1" as="geometry" />
        </mxCell>
        <mxCell id="AvxzYxUVcvAYq60GdygG-4" value="Existing&lt;br&gt;Patient?" style="rhombus;whiteSpace=wrap;html=1;" parent="1" vertex="1">
          <mxGeometry x="385" y="430" width="80" height="80" as="geometry" />
        </mxCell>
        <mxCell id="YIYibgw2GehKVTbHbiD7-16" value="" style="edgeStyle=orthogonalEdgeStyle;rounded=0;orthogonalLoop=1;jettySize=auto;html=1;" edge="1" parent="1" source="YIYibgw2GehKVTbHbiD7-6" target="YIYibgw2GehKVTbHbiD7-15">
          <mxGeometry relative="1" as="geometry" />
        </mxCell>
        <mxCell id="YIYibgw2GehKVTbHbiD7-6" value="Patient&#39;s Details" style="whiteSpace=wrap;html=1;" vertex="1" parent="1">
          <mxGeometry x="365" y="600" width="120" height="60" as="geometry" />
        </mxCell>
        <mxCell id="YIYibgw2GehKVTbHbiD7-11" value="" style="edgeStyle=orthogonalEdgeStyle;rounded=0;orthogonalLoop=1;jettySize=auto;html=1;" edge="1" parent="1" source="YIYibgw2GehKVTbHbiD7-8" target="YIYibgw2GehKVTbHbiD7-10">
          <mxGeometry relative="1" as="geometry" />
        </mxCell>
        <mxCell id="YIYibgw2GehKVTbHbiD7-8" value="New Patient&lt;br&gt;Registration" style="whiteSpace=wrap;html=1;" vertex="1" parent="1">
          <mxGeometry x="205" y="440" width="120" height="60" as="geometry" />
        </mxCell>
        <mxCell id="YIYibgw2GehKVTbHbiD7-12" style="edgeStyle=orthogonalEdgeStyle;rounded=0;orthogonalLoop=1;jettySize=auto;html=1;entryX=0;entryY=0.5;entryDx=0;entryDy=0;" edge="1" parent="1" source="YIYibgw2GehKVTbHbiD7-10" target="YIYibgw2GehKVTbHbiD7-6">
          <mxGeometry relative="1" as="geometry">
            <Array as="points">
              <mxPoint x="70" y="630" />
            </Array>
          </mxGeometry>
        </mxCell>
        <mxCell id="YIYibgw2GehKVTbHbiD7-10" value="Patient &lt;br&gt;Information" style="shape=parallelogram;perimeter=parallelogramPerimeter;whiteSpace=wrap;html=1;fixedSize=1;fillColor=#f8cecc;strokeColor=#b85450;" vertex="1" parent="1">
          <mxGeometry x="10" y="440" width="120" height="60" as="geometry" />
        </mxCell>
        <mxCell id="YIYibgw2GehKVTbHbiD7-13" value="False" style="text;html=1;strokeColor=none;fillColor=none;align=center;verticalAlign=middle;whiteSpace=wrap;rounded=0;" vertex="1" parent="1">
          <mxGeometry x="330" y="440" width="60" height="30" as="geometry" />
        </mxCell>
        <mxCell id="YIYibgw2GehKVTbHbiD7-14" value="True" style="text;html=1;strokeColor=none;fillColor=none;align=center;verticalAlign=middle;whiteSpace=wrap;rounded=0;" vertex="1" parent="1">
          <mxGeometry x="425" y="535" width="60" height="30" as="geometry" />
        </mxCell>
        <mxCell id="YIYibgw2GehKVTbHbiD7-18" value="" style="edgeStyle=orthogonalEdgeStyle;rounded=0;orthogonalLoop=1;jettySize=auto;html=1;" edge="1" parent="1" source="YIYibgw2GehKVTbHbiD7-15" target="YIYibgw2GehKVTbHbiD7-17">
          <mxGeometry relative="1" as="geometry" />
        </mxCell>
        <mxCell id="YIYibgw2GehKVTbHbiD7-15" value="Appointment&lt;br&gt;Scheduling" style="whiteSpace=wrap;html=1;" vertex="1" parent="1">
          <mxGeometry x="365" y="740" width="120" height="60" as="geometry" />
        </mxCell>
        <mxCell id="YIYibgw2GehKVTbHbiD7-20" value="" style="edgeStyle=orthogonalEdgeStyle;rounded=0;orthogonalLoop=1;jettySize=auto;html=1;" edge="1" parent="1" source="YIYibgw2GehKVTbHbiD7-17" target="YIYibgw2GehKVTbHbiD7-19">
          <mxGeometry relative="1" as="geometry" />
        </mxCell>
        <mxCell id="YIYibgw2GehKVTbHbiD7-17" value="Select Date &lt;br&gt;and &lt;br&gt;Time" style="shape=parallelogram;perimeter=parallelogramPerimeter;whiteSpace=wrap;html=1;fixedSize=1;" vertex="1" parent="1">
          <mxGeometry x="365" y="880" width="120" height="60" as="geometry" />
        </mxCell>
        <mxCell id="YIYibgw2GehKVTbHbiD7-22" value="" style="edgeStyle=orthogonalEdgeStyle;rounded=0;orthogonalLoop=1;jettySize=auto;html=1;" edge="1" parent="1" source="YIYibgw2GehKVTbHbiD7-19">
          <mxGeometry relative="1" as="geometry">
            <mxPoint x="425" y="1250" as="targetPoint" />
          </mxGeometry>
        </mxCell>
        <mxCell id="YIYibgw2GehKVTbHbiD7-24" value="" style="edgeStyle=orthogonalEdgeStyle;rounded=0;orthogonalLoop=1;jettySize=auto;html=1;entryX=0.5;entryY=0;entryDx=0;entryDy=0;" edge="1" parent="1" target="YIYibgw2GehKVTbHbiD7-23">
          <mxGeometry relative="1" as="geometry">
            <mxPoint x="485" y="1080" as="sourcePoint" />
            <mxPoint x="620" y="1190" as="targetPoint" />
            <Array as="points">
              <mxPoint x="520" y="1080" />
            </Array>
          </mxGeometry>
        </mxCell>
        <mxCell id="YIYibgw2GehKVTbHbiD7-26" value="" style="edgeStyle=orthogonalEdgeStyle;rounded=0;orthogonalLoop=1;jettySize=auto;html=1;entryX=0.5;entryY=0;entryDx=0;entryDy=0;" edge="1" parent="1" source="YIYibgw2GehKVTbHbiD7-19" target="YIYibgw2GehKVTbHbiD7-25">
          <mxGeometry relative="1" as="geometry">
            <Array as="points">
              <mxPoint x="330" y="1080" />
            </Array>
          </mxGeometry>
        </mxCell>
        <mxCell id="YIYibgw2GehKVTbHbiD7-19" value="Confirm Appointment" style="whiteSpace=wrap;html=1;" vertex="1" parent="1">
          <mxGeometry x="365" y="1020" width="120" height="60" as="geometry" />
        </mxCell>
        <mxCell id="YIYibgw2GehKVTbHbiD7-23" value="Cancel Appointment" style="whiteSpace=wrap;html=1;" vertex="1" parent="1">
          <mxGeometry x="460" y="1160" width="120" height="60" as="geometry" />
        </mxCell>
        <mxCell id="YIYibgw2GehKVTbHbiD7-25" value="Reschedule Appointment" style="whiteSpace=wrap;html=1;" vertex="1" parent="1">
          <mxGeometry x="270" y="1160" width="120" height="60" as="geometry" />
        </mxCell>
      </root>
    </mxGraphModel>
  </diagram>
</mxfile>
